<svg xmlns="http://www.w3.org/2000/svg" width="3.41333in" height="3.41333in" viewBox="0 0 1024 1024">
	<defs>
		<linearGradient xmlns="http://www.w3.org/2000/svg" id="inner-gradient" x1="20%" y1="15%" x2="83%" y2="79%">
			<stop offset="0%" style="stop-color:#67673c;stop-opacity:1"/>
			<stop offset="100%" style="stop-color:#7e7d56;stop-opacity:1"/>
		</linearGradient><linearGradient xmlns="http://www.w3.org/2000/svg" id="text-gradient" x1="0%" y1="64%" x2="0%" y2="85%">
			<stop offset="0%" style="stop-color:#4dce8e;stop-opacity:1"/>
			<stop offset="100%" style="stop-color:#48bf84;stop-opacity:1"/>
		</linearGradient><radialGradient xmlns="http://www.w3.org/2000/svg" id="eye-specular" cx="57.7%" cy="32.3#" r="25%">
			<stop offset="0%" style="stop-color: #ffffff;stop-opacity:1;"/>
			<stop offset="100%" style="stop-color: #ffffff;stop-opacity: 0;"/>
		</radialGradient>
	</defs>
	<circle id="Background" fill="url(#inner-gradient)" cx="535" cy="490" r="325"/><path id="Duck" fill="#215235" d="M 198.56,478.94            C 209.54,477.77 220.43,476.06 231.15,473.69              337.83,450.16 449.71,293.38 556.78,280.14              594.74,275.45 622.33,287.53 642.97,303.67              680.55,333.06 694.15,375.45 698.90,390.89              702.54,395.60 667.99,454.41 655.32,452.22              643.89,452.72 582.58,464.70 520.01,491.34              462.57,515.80 413.30,555.50 381.76,583.12              354.32,607.15 337.44,679.40 323.35,745.98              269.00,733.50 184.50,523.00 198.56,478.94 Z"/><path id="Eye Outline" fill="#7e7d56" d="M 578.31,342.42            C 579.56,344.63 583.97,353.16 589.71,354.85              595.44,356.54 606.25,358.16 609.71,356.32              613.17,354.48 615.74,346.02 613.09,341.68              610.44,337.35 601.47,324.77 594.05,325.36              586.62,325.95 581.98,334.70 581.98,334.62              581.98,334.55 584.04,337.93 583.46,338.01              582.87,338.08 577.06,340.21 578.31,342.42 Z"/><path id="Eyeball" fill="#000000" d="M 584.59,343.48            C 585.97,345.99 588.48,353.66 597.53,353.56              606.59,353.46 610.01,350.34 610.42,348.34              611.14,345.32 605.20,335.50 597.94,334.43              592.01,333.86 583.21,340.97 584.59,343.48 Z"/><path xmlns="http://www.w3.org/2000/svg" id="Iris" fill="#2b1900" d="M 587.63,343.67            C 588.66,345.54 590.53,351.27 597.28,351.19              604.04,351.12 606.60,348.79 606.90,347.30              607.22,345.98 605.82,342.90 603.51,340.43              603.11,340.00 603.86,343.72 602.12,345.40              600.65,346.81 596.66,346.23 596.25,345.96              595.66,345.57 593.46,343.45 594.12,341.14              594.68,339.21 598.15,337.00 597.59,336.92              593.16,336.50 586.60,341.80 587.63,343.67 Z"/>
	<rect id="Eye Specular" fill="url(#eye-specular)" x="591" y="332" width="16" height="16"/>
	<path id="Beak" fill="#efe665" d="M 674.91,370.17            C 682.03,375.80 697.94,387.00 699.03,390.52              702.66,395.22 708.36,397.79 717.52,406.40              728.41,416.65 739.98,429.14 747.67,434.49              756.30,440.50 777.97,450.53 793.85,459.20              805.38,465.49 811.30,470.25 812.90,471.70              817.19,475.60 815.83,489.65 815.62,490.23              815.00,491.89 812.85,492.57 809.47,492.49              806.28,492.42 804.10,489.72 799.00,488.47              787.56,485.65 763.89,484.28 746.93,478.61              705.63,464.82 668.11,454.03 655.45,451.85              653.02,451.95 638.24,441.59 640.08,437.43              641.86,432.03 644.04,428.38 654.35,424.82              656.51,424.07 657.87,424.00 659.43,422.96              665.32,419.03 667.80,412.63 670.17,407.96              675.08,397.96 675.97,382.39 674.91,370.17 Z"/>
	<path id="Nostril" fill="#000000" d="M 699.34,411.12            C 699.53,409.22 701.88,407.06 703.25,407.47              704.62,407.88 707.66,411.72 708.00,412.72              708.34,414.12 707.19,415.91 705.62,415.59              704.06,415.28 699.16,413.03 699.34,411.12 Z"/><path id="Smile" fill="none" stroke="#000000" stroke-width="1" d="M 656.37,427.47            C 658.82,429.92 660.98,432.69 664.39,435.06              666.65,436.63 669.75,437.85 671.67,439.55              676.48,443.83 683.65,445.44 686.75,447.04              689.85,448.65 708.79,460.41 715.10,461.80              718.48,462.55 724.25,465.21 733.39,468.33              741.31,471.03 752.26,474.22 756.49,476.14              763.23,476.99 769.01,480.09 779.38,480.84              789.76,481.59 801.31,485.98 805.37,488.33              807.42,489.51 809.54,491.13 811.15,492.44"/><path id="Bowtie" fill="#31302f" d="M 431.09,517.32            C 432.16,518.26 438.49,523.74 445.72,525.57              452.31,527.23 457.65,526.57 461.72,526.57              465.15,526.51 509.60,518.41 514.09,524.82              522.34,546.44 507.46,595.05 504.09,599.19              503.98,599.34 494.54,596.85 491.47,594.07              483.60,586.94 470.83,570.35 458.18,560.23              451.62,554.98 442.66,552.37 439.59,551.82              431.30,550.34 423.07,551.26 422.73,551.32              419.78,551.82 405.83,558.17 390.91,562.59              373.66,567.71 353.92,570.59 353.82,570.59              353.64,570.59 345.27,571.32 340.36,568.05              341.45,550.41 361.64,492.05 377.64,481.50              392.91,483.68 423.64,510.77 431.09,517.32 Z"/>
	<path id="Bowtie Wrap" fill="#31302f" d="M 356.17,399.22            C 359.15,397.58 362.59,398.28 362.52,398.43              362.16,399.24 355.79,402.28 355.48,403.18              350.16,418.68 352.31,448.70 368.95,481.30              381.59,501.31 399.53,521.39 431.85,541.48              422.91,552.15 427.85,546.57 427.85,546.57              427.85,546.57 394.23,532.05 363.67,481.66              342.20,446.25 349.85,405.30 349.85,405.30              349.85,405.30 352.81,401.07 356.17,399.22 Z"/><circle xmlns="http://www.w3.org/2000/svg" id="Ring" fill="none" stroke="#6c6b6a" stroke-width="31" cx="535" cy="490" r="334"/>
	<path id="Quack" fill="url(#text-gradient)" d="M 654.01,784.54            C 653.16,777.89 653.20,769.77 654.43,759.91              675.68,718.66 708.44,723.75 708.27,724.23              708.23,724.77 724.03,724.60 724.93,712.66              709.43,714.66 669.18,692.41 635.43,757.41              634.03,771.05 634.27,782.09 635.73,791.00              638.62,790.44 651.56,785.19 654.01,784.54 Z            M 507.43,764.91            C 499.36,805.50 517.18,823.50 534.68,829.91              549.36,829.32 575.80,809.27 573.68,808.91              566.12,818.13 593.81,831.35 603.18,828.41              615.23,827.17 617.43,802.66 617.43,802.41              608.78,812.20 587.93,812.32 590.93,806.41              590.93,806.41 610.18,710.66 610.18,710.66              596.77,707.98 589.52,720.78 590.18,720.91              590.81,720.79 577.91,708.32 563.18,706.91              538.45,711.32 518.64,728.95 507.43,764.91 Z            M 535.55,812.77            C 508.09,795.86 531.55,724.41 569.91,723.68              596.64,747.68 574.64,811.32 535.55,812.77 Z            M 253.38,697.38            C 235.69,706.34 221.50,723.59 219.73,741.14              216.92,768.94 243.38,798.65 264.45,801.14              283.76,803.41 316.50,782.98 325.00,757.86              334.29,730.43 318.99,697.99 289.57,692.09              284.18,685.45 270.91,667.00 267.48,661.50              275.68,659.32 282.85,658.36 287.43,658.91              306.04,661.12 367.68,689.41 366.18,739.91              349.68,798.41 285.00,831.59 285.00,831.59              285.00,831.59 295.15,842.61 308.68,847.78              318.52,851.54 344.11,854.11 365.68,853.41              378.36,853.00 814.41,840.72 830.09,837.95              836.32,836.86 839.70,832.66 840.36,831.77              842.39,829.08 842.64,825.49 844.70,823.84              845.85,822.93 849.37,823.74 850.06,823.53              853.14,825.32 862.64,829.60 866.63,831.25              867.74,831.71 867.59,832.48 866.10,833.37              860.93,836.50 848.03,843.65 836.12,844.85              815.96,846.88 347.40,882.50 326.68,882.91              282.15,883.78 269.07,865.17 265.18,862.41              243.12,846.75 228.85,826.08 228.85,826.08              228.85,826.08 169.68,776.41 186.93,720.41              194.04,700.77 215.55,683.97 237.13,673.04              241.08,678.76 247.76,687.29 253.38,697.38 Z            M 469.78,800.96            C 471.43,798.45 471.95,796.91 471.93,796.91              471.93,796.91 489.18,710.16 489.18,710.16              474.92,707.81 468.82,723.59 468.82,723.59              468.82,723.59 454.93,786.41 454.93,786.41              455.00,786.41 453.65,790.30 449.51,795.38              451.26,796.57 463.17,799.61 469.78,800.96 Z            M 416.45,808.80            C 404.64,800.12 401.37,786.62 401.43,786.41              401.43,786.16 415.45,721.86 415.45,721.86              415.45,721.86 411.43,711.53 399.93,709.78              399.93,709.78 383.68,787.66 383.68,787.66              383.68,787.66 381.68,818.91 423.18,829.66              428.36,828.54 433.04,827.13 437.25,825.51              426.09,817.52 417.96,810.43 416.45,808.80 Z            M 650.56,819.44            C 668.56,833.08 696.32,822.91 704.93,822.91              708.60,810.79 694.57,811.14 694.55,811.23              688.41,812.90 679.88,813.98 672.18,811.34              671.46,812.08 654.69,818.00 650.56,819.44 Z            M 754.19,719.50            C 759.51,696.04 770.18,650.41 770.18,650.41              784.38,648.69 786.12,667.23 785.36,667.32              785.36,667.32 782.92,677.99 780.03,691.38              767.52,708.44 759.66,714.85 754.19,719.50 Z            M 767.42,750.40            C 767.11,751.85 766.93,752.66 766.93,752.66              775.50,758.11 819.94,710.16 819.93,710.16              839.22,711.15 833.70,722.16 833.68,722.16              833.68,722.16 787.68,763.66 787.68,763.66              795.04,770.24 804.08,808.80 814.93,811.41              814.89,811.00 823.18,814.52 824.43,827.66              790.77,839.56 781.82,780.02 764.18,768.41              764.18,768.41 755.93,809.16 755.93,809.16              753.37,815.97 745.59,825.59 734.43,824.91              734.43,824.91 740.19,793.84 745.02,767.78              751.82,762.64 756.36,760.09 767.42,750.40 Z" stroke-width="4"/>  
</svg>