<?xml version="1.0" encoding="UTF-8" standalone="no"?>
<!DOCTYPE svg PUBLIC "-//W3C//DTD SVG 20010904//EN"
              "http://www.w3.org/TR/2001/REC-SVG-20010904/DTD/svg10.dtd">

<svg xmlns="http://www.w3.org/2000/svg"
     width="0.853333in" height="0.853333in"
     viewBox="0 0 256 256">
  <path id="Search"
        fill="#52da96" fill-rule="evenodd" stroke="none"
        d="M 149.71,132.73
           C 167.20,106.15 155.99,68.48 124.94,56.68
             93.97,45.66 69.34,64.85 61.25,81.01
             47.88,107.69 59.21,140.53 87.29,151.87
             92.39,153.93 115.91,157.24 132.67,148.80
             137.63,146.60 148.58,135.27 149.71,132.73 Z
           M 198.08,222.42
           C 198.08,222.42 218.42,215.42 215.75,204.75
             213.08,194.08 155.90,140.74 157.74,137.93
             178.58,106.29 165.22,61.42 128.25,47.37
             91.38,34.25 62.05,57.11 52.40,76.34
             36.48,108.11 49.98,147.23 83.41,160.73
             89.48,163.18 117.50,167.12 137.46,157.08
             142.60,154.10 198.08,221.08 198.08,222.42 Z" />
</svg>
